<svg xmlns="http://www.w3.org/2000/svg" viewBox="0 0 600 560" width="600" height="560">
  <defs>
    <linearGradient id="ringGrad" x1="0%" y1="0%" x2="100%" y2="100%">
      <stop offset="0%" stop-color="#F3D9A8"/>
      <stop offset="50%" stop-color="#CE9257"/>
      <stop offset="100%" stop-color="#8C5A2E"/>
    </linearGradient>
    <linearGradient id="vGrad" x1="0%" y1="0%" x2="100%" y2="100%">
      <stop offset="0%" stop-color="#FBEBD1"/>
      <stop offset="55%" stop-color="#E9C08A"/>
      <stop offset="100%" stop-color="#B5773F"/>
    </linearGradient>
    <radialGradient id="sparkGrad" cx="35%" cy="30%" r="75%">
      <stop offset="0%" stop-color="#FDF3DF"/>
      <stop offset="100%" stop-color="#D8A868"/>
    </radialGradient>
  </defs>

  <g transform="translate(100,10)">
    <circle cx="200" cy="164" r="108" fill="none" stroke="url(#ringGrad)" stroke-width="12"
            stroke-linecap="round" stroke-dasharray="590 140" stroke-dashoffset="-49" transform="rotate(90 200 164)"/>
    <path d="M 158 116 L 200 218 L 242 116" fill="none" stroke="url(#vGrad)" stroke-width="13" stroke-linecap="round" stroke-linejoin="round"/>
    <path d="M 165 123 L 200 206 L 235 123" fill="none" stroke="#FBEBD1" stroke-width="1.3" stroke-linecap="round" stroke-linejoin="round" opacity="0.55" stroke-dasharray="1 7"/>
    <g transform="translate(288,68)">
      <path d="M 0,-14 C 2,-4.5 4.5,-2 14,0 C 4.5,2 2,4.5 0,14 C -2,4.5 -4.5,2 -14,0 C -4.5,-2 -2,-4.5 0,-14 Z" fill="url(#sparkGrad)"/>
    </g>
    <g transform="translate(102,246) scale(0.5)">
      <path d="M 0,-14 C 2,-4.5 4.5,-2 14,0 C 4.5,2 2,4.5 0,14 C -2,4.5 -4.5,2 -14,0 C -4.5,-2 -2,-4.5 0,-14 Z" fill="url(#sparkGrad)" opacity="0.8"/>
    </g>
  </g>

  <text x="300" y="428" text-anchor="middle" font-family="Fraunces" font-style="italic" font-weight="600" font-size="66" fill="#3A2318">Victorious</text>
  <text x="300" y="472" text-anchor="middle" font-family="Jost" font-weight="500" font-size="22" fill="#B5773F" letter-spacing="9">CONCEPT</text>
</svg>
